<svg width="22" height="24" viewBox="0 0 22 24" fill="none" xmlns="http://www.w3.org/2000/svg">
<path d="M10.3819 0.62937C10.7835 0.498854 11.2162 0.498854 11.6179 0.62937L17.1834 2.43769C17.5851 2.56821 17.9351 2.82254 18.1834 3.16424L21.623 7.89849C21.8713 8.24018 22.005 8.6517 22.005 9.07406V14.9259C22.005 15.3483 21.8713 15.7598 21.623 16.1015L18.1834 20.8357C17.9351 21.1774 17.5851 21.4318 17.1834 21.5623L11.6179 23.3706C11.2162 23.5011 10.7835 23.5011 10.3819 23.3706L4.81641 21.5623C4.41473 21.4318 4.06467 21.1774 3.81641 20.8357L0.376779 16.1015C0.128523 15.7598 -0.00518703 15.3483 -0.00518703 14.9259V9.07406C-0.00518703 8.6517 0.128523 8.24018 0.376779 7.89849L3.81641 3.16424C4.06467 2.82254 4.41473 2.56821 4.81641 2.43769L10.3819 0.62937Z" fill="url(#paint0_diamond_360_23)"/>
<defs>
<radialGradient id="paint0_diamond_360_23" cx="0" cy="0" r="1" gradientUnits="userSpaceOnUse" gradientTransform="translate(10.9999 12) rotate(90) scale(11.5714)">
<stop stop-color="#47004F"/>
<stop offset="1" stop-color="#A300B5"/>
</radialGradient>
</defs>
</svg>
