<svg width="32" height="32" viewBox="0 0 32 32" fill="none" xmlns="http://www.w3.org/2000/svg">
<path d="M15.2346 1.31703C15.7247 1.11404 16.2753 1.11404 16.7654 1.31703L25.8412 5.07637C26.3313 5.27936 26.7206 5.66871 26.9236 6.15877L30.683 15.2346C30.886 15.7247 30.886 16.2753 30.683 16.7654L26.9236 25.8412C26.7206 26.3313 26.3313 26.7206 25.8412 26.9236L16.7654 30.683C16.2753 30.886 15.7247 30.886 15.2346 30.683L6.15877 26.9236C5.66871 26.7206 5.27936 26.3313 5.07637 25.8412L1.31703 16.7654C1.11404 16.2753 1.11404 15.7247 1.31703 15.2346L5.07637 6.15877C5.27936 5.66871 5.66871 5.27936 6.15877 5.07637L15.2346 1.31703Z" stroke="url(#paint0_diamond_360_17)"/>
<defs>
<radialGradient id="paint0_diamond_360_17" cx="0" cy="0" r="1" gradientUnits="userSpaceOnUse" gradientTransform="translate(16 16) rotate(90) scale(15)">
<stop stop-color="#001496"/>
<stop offset="1" stop-color="#000630"/>
</radialGradient>
</defs>
</svg>
